<svg xmlns="http://www.w3.org/2000/svg" xmlns:xlink="http://www.w3.org/1999/xlink" width="35.741" height="35.741" viewBox="0 0 35.741 35.741">
  <defs>
    <radialGradient id="radial-gradient" cx="0.5" cy="0.5" r="0.5" gradientUnits="objectBoundingBox">
      <stop offset="0" stop-color="#ff6b29"/>
      <stop offset="1" stop-color="#fb550b"/>
    </radialGradient>
  </defs>
  <path id="noun-check-3496109-FFFFFF" d="M67.871,85.741a17.871,17.871,0,1,0-12.637-5.234A17.87,17.87,0,0,0,67.871,85.741Zm-9.277-17.4a1.625,1.625,0,0,1,2.291,0l3.737,3.737,9.406-9.406a1.625,1.625,0,0,1,2.291,2.291l-10.56,10.56a1.625,1.625,0,0,1-2.291,0l-4.874-4.874a1.625,1.625,0,0,1,0-2.307Z" transform="translate(-50 -50)" fill="url(#radial-gradient)"/>
</svg>
