<?xml version="1.0" encoding="UTF-8"?>
<svg width="100pt" height="100pt" version="1.1" viewBox="0 0 100 100" xmlns="http://www.w3.org/2000/svg">
 <g fill="#fff">
  <path d="m77.328 35.73h-55.406c-1.4766 0-2.6719-1.1953-2.6719-2.6719v-12.68c0-1.4727 1.1953-2.668 2.6719-2.668h55.406c1.4766 0 2.6719 1.1953 2.6719 2.668v12.68c0 1.4766-1.1953 2.6719-2.6719 2.6719z"/>
  <path d="m77.328 60.488h-55.406c-1.4766-0.003906-2.6719-1.2031-2.6719-2.6797v-12.68c0.003906-1.4727 1.1992-2.6641 2.6719-2.668h55.406c1.4727 0.003906 2.668 1.1953 2.6719 2.668v12.68c0 1.4766-1.1953 2.6758-2.6719 2.6797z"/>
  <path d="m77.328 85.238h-55.406c-1.4727-0.003906-2.668-1.1953-2.6719-2.668v-12.691c0.003906-1.4727 1.1992-2.6641 2.6719-2.668h55.406c1.4727 0.003906 2.668 1.1953 2.6719 2.668v12.691c-0.003906 1.4727-1.1992 2.6641-2.6719 2.668z"/>
 </g>
</svg>
