<svg xmlns="http://www.w3.org/2000/svg" width="75.043" height="22.308" viewBox="0 0 75.043 22.308">
  <g id="INX-logo" transform="translate(0)">
    <path id="Path_7" data-name="Path 7" d="M50.405,36.678V33.3l-7.568-7.593,7.2-7.2V14.37L38.7,25.892Z" transform="translate(-38.7 -14.37)" fill="#fff"/>
    <path id="Path_8" data-name="Path 8" d="M397.07,14.37v3.377l7.568,7.593-7.2,7.2v4.136l11.338-11.52Z" transform="translate(-333.732 -14.37)" fill="#fff"/>
    <path id="Path_9" data-name="Path 9" d="M126.085,33.811l-2.513,13.773s-.157.841.184.965a7.866,7.866,0,0,0,1.82.157h2.02s.5-.03.7-.785,2.579-14.109,2.579-14.109.173-.983-.589-.983h-3.561s-.619.523-.642.983Z" transform="translate(-108.542 -29.567)" fill="#fff"/>
    <path id="Path_10" data-name="Path 10" d="M165.014,55.474l2.434-13.363s.065-.115.17.023,3.4,6.249,3.4,6.249a1.36,1.36,0,0,1-.083.783c-.173.467-1.228,6.6-1.228,6.6s-.484.612-.93.548c-.2-.028-3.339,0-3.339,0S164.834,56.011,165.014,55.474Z" transform="translate(-142.662 -37.171)" fill="#fff"/>
    <path id="Path_11" data-name="Path 11" d="M182.817,33.039l8.425,15.318s.039.3.707.306,3.593.005,3.593.005.569-.35.668-.723-8.5-14.9-8.5-14.9a.6.6,0,0,0-.472-.254c-.334-.021-4.1,0-4.1,0s-.415.069-.315.254Z" transform="translate(-157.333 -29.524)" fill="#fff"/>
    <path id="Path_12" data-name="Path 12" d="M239.841,33.21,238.28,41.4l3.6,6.538,2.632-14.434s-.118-.742-.629-.735-3.535,0-3.535,0-.629.164-.511.44Z" transform="translate(-203.007 -29.518)" fill="#fff"/>
    <path id="Path_13" data-name="Path 13" d="M272.688,81.472S266.6,88.045,266.6,88.1s-.21.649.353.657,4.634,0,4.634,0,.262.115.838-.541,2.356-2.566,2.356-2.566.184-.133,0-.532-2.094-3.644-2.094-3.644Z" transform="translate(-226.291 -69.611)" fill="#fff"/>
    <path id="Path_14" data-name="Path 14" d="M297.339,47.621s-7.07-12.686-7.738-13.9a2.832,2.832,0,0,0-.516-.7c-.076-.046-.154-.09-.235-.129a1.691,1.691,0,0,0-.309-.108c-.074-.012-.147-.025-.219-.042-.285,0-3.432-.039-4.219,0-.825.041-.431.9-.431.9l7.934,14.257c.5.907.864.718.864.718s1.3.028,3.535,0,1.336-.993,1.336-.993Z" transform="translate(-240.299 -29.475)" fill="#fff"/>
    <path id="Path_15" data-name="Path 15" d="M330.711,35.609l2.524-2.671s.03-.24.687-.223,4.36,0,4.36,0,.756.2.323.695-5.675,6.225-5.675,6.225-.049.216-.4-.461S330.711,36,330.711,36s-.14-.246,0-.392Z" transform="translate(-279.05 -29.473)" fill="#fff"/>
  </g>
</svg>
