<svg xmlns="http://www.w3.org/2000/svg" width="41.668" height="41.668" viewBox="0 0 41.668 41.668">
  <path id="linkedin" d="M0,2.984A3.023,3.023,0,0,1,3.06,0H38.608a3.023,3.023,0,0,1,3.06,2.984v35.7a3.023,3.023,0,0,1-3.06,2.984H3.06A3.023,3.023,0,0,1,0,38.684Zm12.873,31.9V16.066H6.62V34.882ZM9.748,13.5A3.26,3.26,0,1,0,9.789,7a3.259,3.259,0,1,0-.083,6.5ZM22.53,34.882V24.373a4.246,4.246,0,0,1,.208-1.526,3.421,3.421,0,0,1,3.208-2.287c2.263,0,3.167,1.724,3.167,4.255V34.882h6.253V24.089c0-5.781-3.083-8.469-7.2-8.469a6.213,6.213,0,0,0-5.638,3.107v.065h-.042l.042-.065V16.066h-6.25c.078,1.766,0,18.816,0,18.816Z" fill="#fff"/>
</svg>
