<svg xmlns="http://www.w3.org/2000/svg" width="20.43" height="20.428" viewBox="0 0 20.43 20.428">
  <path id="telephone-fill" d="M2.407.652A2.228,2.228,0,0,1,5.74.86L8.031,3.8a2.227,2.227,0,0,1,.4,1.908l-.7,2.8a.866.866,0,0,0,.227.821L11.1,12.467a.866.866,0,0,0,.822.227l2.795-.7a2.228,2.228,0,0,1,1.908.4l2.944,2.291a2.227,2.227,0,0,1,.208,3.334l-1.32,1.32a3.546,3.546,0,0,1-3.673.9A23.793,23.793,0,0,1,5.833,14.6,23.793,23.793,0,0,1,.189,5.646a3.549,3.549,0,0,1,.9-3.673Z" transform="translate(0 -0.001)" fill="rgba(129,129,129,0.48)" fill-rule="evenodd"/>
</svg>
