<svg xmlns="http://www.w3.org/2000/svg" width="26.923" height="26.921" viewBox="0 0 26.923 26.921">
  <path id="telephone-fill" d="M3.172.859a2.936,2.936,0,0,1,4.392.274l3.02,3.88a2.935,2.935,0,0,1,.53,2.514l-.92,3.685a1.141,1.141,0,0,0,.3,1.082l4.134,4.134a1.141,1.141,0,0,0,1.084.3l3.683-.92a2.936,2.936,0,0,1,2.514.53l3.88,3.019a2.935,2.935,0,0,1,.274,4.393l-1.74,1.74a4.673,4.673,0,0,1-4.841,1.181,31.355,31.355,0,0,1-11.8-7.437A31.354,31.354,0,0,1,.249,7.44,4.677,4.677,0,0,1,1.432,2.6Z" transform="translate(0 -0.001)" fill="#fff" fill-rule="evenodd"/>
</svg>
